<?xml version="1.0" encoding="utf-8"?>
<!-- Generator: Adobe Illustrator 22.0.0, SVG Export Plug-In . SVG Version: 6.00 Build 0)  -->
<svg version="1.1" id="Layer_1" xmlns="http://www.w3.org/2000/svg" xmlns:xlink="http://www.w3.org/1999/xlink" x="0px" y="0px"
	 viewBox="0 0 47 68" style="enable-background:new 0 0 47 68;" xml:space="preserve">
<style type="text/css">
	.st0{fill-rule:evenodd;clip-rule:evenodd;fill:#1C4508;}
	.st1{fill:#1C4508;}
	.st2{fill:#FFC363;}
	.st3{fill-rule:evenodd;clip-rule:evenodd;fill:#554A35;}
	.st4{fill-rule:evenodd;clip-rule:evenodd;fill:#FFC363;}
</style>
<path class="st0" d="M1.7,25C8,25,8,25,8,25c0-9,0-9,0-9c-6.3,0-6.3,0-6.3,0C0.8,16,0,16.8,0,17.6c0,5.8,0,5.8,0,5.8
	C0,24.2,0.8,25,1.7,25z"/>
<rect x="3" y="25" class="st1" width="3" height="10"/>
<rect x="3" y="25" width="3" height="3"/>
<rect x="3" y="40" class="st1" width="3" height="8"/>
<rect x="3" y="40" width="3" height="4"/>
<path class="st0" d="M8,38.2C8,39,7.1,40,6,40C3,40,3,40,3,40c-1.2,0-2-1-2-1.8c0-5.5,0-5.5,0-5.5C1,32,1.9,31,3,31C6,31,6,31,6,31
	c1.2,0,2,1,2,1.8V38.2z"/>
<rect x="15" y="30" class="st1" width="17" height="9"/>
<rect x="15" y="28" width="17" height="2"/>
<rect x="8" y="13" class="st1" width="31" height="15"/>
<path class="st0" d="M24,3c-5.4,0-10,4.3-10,10c20,0,20,0,20,0C34,7.3,29.4,3,24,3z"/>
<circle class="st2" cx="18.5" cy="9.5" r="1.5"/>
<circle class="st2" cx="28.5" cy="9.5" r="1.5"/>
<path class="st3" d="M32,20.5c0,2-1.3,3.5-3.2,3.5c-10.6,0-10.6,0-10.6,0c-1.9,0-3.2-1.5-3.2-3.5c0-1.8,1.3-3.5,3.2-3.5
	c10.6,0,10.6,0,10.6,0C30.7,17,32,18.8,32,20.5z"/>
<path class="st4" d="M24,22.7c0,0.3,0,0.3-0.3,0.3c-0.3,0-0.7,0-0.7-0.3c0-3.4,0-3.4,0-3.4s0.3-0.3,0.7-0.3c0.3,0,0.3,0.3,0.3,0.3
	V22.7z"/>
<path class="st4" d="M22,22.7c0,0.3,0,0.3-0.3,0.3c-0.3,0-0.7,0-0.7-0.3c0-3.4,0-3.4,0-3.4s0.3-0.3,0.7-0.3c0.3,0,0.3,0.3,0.3,0.3
	V22.7z"/>
<path class="st4" d="M20,22.7c0,0.3-0.3,0.3-0.3,0.3c-0.3,0-0.7,0-0.7-0.3c0-3.4,0-3.4,0-3.4s0.3-0.3,0.7-0.3l0.3,0.3V22.7z"/>
<path class="st4" d="M18,22.7c0,0.3-0.3,0.3-0.3,0.3c-0.3,0-0.7,0-0.7-0.3c0-3.4,0-3.4,0-3.4s0.3-0.3,0.7-0.3l0.3,0.3V22.7z"/>
<path class="st4" d="M30,22.7c0,0.3-0.3,0.3-0.7,0.3C29,23,29,23,29,22.7c0-3.4,0-3.4,0-3.4s0-0.3,0.3-0.3c0.3,0,0.7,0.3,0.7,0.3
	V22.7z"/>
<path class="st4" d="M28,22.7c0,0.3,0,0.3-0.5,0.3S27,23,27,22.7c0-3.4,0-3.4,0-3.4s0-0.3,0.5-0.3s0.5,0.3,0.5,0.3V22.7z"/>
<path class="st4" d="M26,22.7c0,0.3,0,0.3-0.5,0.3S25,23,25,22.7c0-3.4,0-3.4,0-3.4s0-0.3,0.5-0.3s0.5,0.3,0.5,0.3V22.7z"/>
<path class="st0" d="M12.9,45c-1.1,0-1.9-1.1-1.9-2c0-3.1,0-3.1,0-3.1c0-1.1,0.8-2,1.9-2c20.1,0,20.1,0,20.1,0c1.1,0,1.9,0.8,1.9,2
	c0,3.1,0,3.1,0,3.1c0,0.8-0.8,2-1.9,2H12.9z"/>
<rect x="16" y="45" class="st1" width="3" height="19"/>
<rect x="16" y="45" width="3" height="3"/>
<rect x="29" y="45" class="st1" width="3" height="19"/>
<rect x="29" y="45" width="3" height="3"/>
<path class="st0" d="M34,8L34,8c0,4,0,4,0,4l0,0c1.1,0,2-0.9,2-1.8C36,8.9,35.1,8,34,8z"/>
<rect x="34" class="st1" width="1" height="10"/>
<path class="st0" d="M13,8L13,8c0,4,0,4,0,4l0,0c-1.1,0-2-0.9-2-1.8C11,8.9,11.9,8,13,8z"/>
<rect x="13" class="st1" width="1" height="10"/>
<path class="st0" d="M22,66c-0.3-1.5-1.5-3-3.3-3c-2.3,0-2.3,0-2.3,0c-1.8,0-3.3,1.5-3.3,3H22z"/>
<rect x="13" y="66" width="9" height="2"/>
<path class="st0" d="M36,66c0-1.5-1.7-3-3.7-3c-2.6,0-2.6,0-2.6,0c-2,0-3.4,1.5-3.7,3H36z"/>
<rect x="26" y="66" width="10" height="2"/>
<path class="st0" d="M2.7,52.3c-0.3-0.3-0.5-0.9-0.5-1.7c0-1.1,1.1-2.3,2.2-2.3c1.4,0,2.5,1.1,2.5,2.3c0,0.9-0.3,1.4-0.8,1.7
	C7.6,54,7.6,54,7.6,54C8.5,53.1,9,52,9,50.6C9,48,6.8,46,4.4,46S0,48,0,50.6C0,52,0.3,53.1,1.1,54L2.7,52.3z"/>
<path class="st0" d="M45.3,25C39,25,39,25,39,25c0-9,0-9,0-9c6.3,0,6.3,0,6.3,0c0.8,0,1.7,0.8,1.7,1.6c0,5.8,0,5.8,0,5.8
	C47,24.2,46.2,25,45.3,25z"/>
<rect x="41" y="25" class="st1" width="3" height="10"/>
<rect x="41" y="25" width="3" height="3"/>
<rect x="41" y="40" class="st1" width="3" height="8"/>
<rect x="41" y="40" width="3" height="4"/>
<path class="st0" d="M39,38.2c0,0.8,0.9,1.8,2,1.8c2.9,0,2.9,0,2.9,0c1.2,0,2-1,2-1.8c0-5.5,0-5.5,0-5.5c0-0.8-0.9-1.8-2-1.8
	C41,31,41,31,41,31c-1.2,0-2,1-2,1.8V38.2z"/>
<path class="st0" d="M44.1,52.3c0.3-0.3,0.5-0.9,0.5-1.7c0-1.1-1.1-2.3-2.1-2.3c-1.3,0-2.1,1.1-2.1,2.3c0,0.9,0.3,1.4,0.5,1.7
	C39.3,54,39.3,54,39.3,54c-0.8-0.9-1.3-2-1.3-3.4c0-2.6,2.1-4.6,4.5-4.6s4.5,2,4.5,4.6c0,1.4-0.5,2.6-1.3,3.4L44.1,52.3z"/>
</svg>
