<?xml version="1.0" encoding="utf-8"?>
<!-- Generator: Adobe Illustrator 22.0.0, SVG Export Plug-In . SVG Version: 6.00 Build 0)  -->
<svg version="1.1" id="Layer_1" xmlns="http://www.w3.org/2000/svg" xmlns:xlink="http://www.w3.org/1999/xlink" x="0px" y="0px"
	 viewBox="0 0 47 68" style="enable-background:new 0 0 47 68;" xml:space="preserve">
<style type="text/css">
	.st0{fill:#1C4508;}
</style>
<rect x="16" y="45" class="st0" width="3" height="19"/>
<rect x="16" y="45" width="3" height="3"/>
<rect x="29" y="45" class="st0" width="3" height="19"/>
<rect x="29" y="45" width="3" height="3"/>
<path class="st0" d="M22,66c-0.3-1.5-1.5-3-3.3-3c-2.3,0-2.3,0-2.3,0c-1.8,0-3.3,1.5-3.3,3H22z"/>
<rect x="13" y="66" width="9" height="2"/>
<path class="st0" d="M36,66c0-1.5-1.7-3-3.7-3c-2.6,0-2.6,0-2.6,0c-2,0-3.4,1.5-3.7,3H36z"/>
<rect x="26" y="66" width="10" height="2"/>
</svg>
